<svg width="29" height="30" viewBox="0 0 29 30" fill="none" xmlns="http://www.w3.org/2000/svg">
<path d="M1.45696 8.42044L14.4579 1.2078" stroke="#C91818" stroke-width="2"/>
<path d="M21.7705 11.6293L28.2414 8.40279" stroke="#C91818" stroke-width="2"/>
<path d="M13.978 1.20784L27.7967 8.43972" stroke="#C91818" stroke-width="2"/>
<path d="M0.926941 8.41504L7.35649 12.4476" stroke="#C91818" stroke-width="2"/>
<path d="M21.7241 14.9649C21.7241 18.4585 18.5627 21.4561 14.4483 21.4561C10.3339 21.4561 7.17242 18.4585 7.17242 14.9649C7.17242 11.4712 10.3339 8.47363 14.4483 8.47363C18.5627 8.47363 21.7241 11.4712 21.7241 14.9649Z" stroke="#C91818" stroke-width="2"/>
<path d="M1.75867 8.54382L1.75867 17.1052" stroke="#C91818" stroke-width="2"/>
<line x1="8.37921" y1="24.6666" x2="20.5171" y2="24.6666" stroke="#C91818" stroke-width="2"/>
<path d="M18.0938 27.7791C18.1526 27.7712 18.2072 27.7644 18.2579 27.7587C18.1297 27.9184 17.9021 28.1133 17.5054 28.3154C16.7745 28.6877 15.6952 28.9473 14.4482 28.9473C13.2012 28.9473 12.1218 28.6877 11.391 28.3154C10.9943 28.1133 10.7666 27.9184 10.6384 27.7587C10.6892 27.7644 10.7438 27.7712 10.8026 27.7791C10.9925 27.8049 11.222 27.844 11.4818 27.8884C12.2743 28.0235 13.3494 28.2068 14.4482 28.2068C15.547 28.2068 16.6221 28.0235 17.4145 27.8884C17.6744 27.844 17.9039 27.8049 18.0938 27.7791ZM18.4133 27.4038C18.4133 27.4031 18.4132 27.4028 18.4132 27.4027L18.4133 27.4038ZM10.4831 27.4027C10.4831 27.4028 10.4831 27.4031 10.483 27.4037L10.4831 27.4027Z" stroke="#C91818" stroke-width="2"/>
</svg>
