<svg width="715" height="670" viewBox="0 0 715 670" fill="none" xmlns="http://www.w3.org/2000/svg">
<circle cx="380" cy="335" r="335" fill="#FFEFD8"/>
<path d="M92 506H669.5C605 620 475.2 670 382 670C288.8 670 167.5 627.5 92 506Z" fill="#F7DBBB"/>
<path fill-rule="evenodd" clip-rule="evenodd" d="M220.569 264.828C217.907 261.169 216.105 256.686 216.406 251.662C217.274 237.187 234.482 240.371 237.829 247.677C241.177 254.983 240.779 273.515 236.453 274.821C234.728 275.341 231.052 274.066 227.312 271.426L229.659 290.876H215.796L220.569 264.828Z" fill="#B28B67"/>
<path fill-rule="evenodd" clip-rule="evenodd" d="M243.971 237.549C243.684 236.367 242.912 235.356 241.871 235.055C241.619 234.983 241.358 234.953 241.099 234.965C241.006 234.97 240.979 235.001 240.936 234.925C240.904 234.868 240.903 234.73 240.89 234.664C240.848 234.457 240.796 234.253 240.733 234.054C240.515 233.376 240.149 232.776 239.708 232.271C238.883 231.325 237.768 230.673 236.61 230.555C235.976 230.49 235.346 230.611 234.747 230.852C234.437 230.977 234.136 231.133 233.843 231.305C233.755 231.357 233.468 231.61 233.38 231.594C233.282 231.576 233.086 231.291 233.006 231.22C232.023 230.337 230.81 229.99 229.585 230C228.204 230.012 226.873 230.093 225.721 231.079C225.477 231.288 225.244 231.517 225.023 231.758C224.907 231.884 224.794 232.016 224.686 232.153C224.621 232.235 224.558 232.32 224.497 232.407C224.394 232.554 224.411 232.602 224.266 232.499C223.711 232.105 223.069 231.92 222.421 232.014C222.037 232.069 221.663 232.204 221.308 232.382C221.187 232.442 220.907 232.684 220.778 232.686C220.651 232.689 220.375 232.465 220.243 232.408C219.532 232.1 218.765 232.025 218.018 232.167C217.246 232.313 216.489 232.673 215.836 233.171C215.521 233.411 215.247 233.676 215.027 234.032C214.932 234.186 214.846 234.349 214.738 234.491C214.675 234.575 214.55 234.66 214.516 234.766C214.536 234.703 213.673 234.313 213.591 234.288C213.157 234.155 212.715 234.182 212.29 234.346C211.491 234.654 210.803 235.345 210.238 236.053C209.948 236.417 209.694 236.819 209.478 237.247C209.375 237.453 209.28 237.664 209.194 237.879C209.152 237.984 209.124 238.114 209.069 238.208C208.998 238.33 208.95 238.332 208.821 238.385C208.167 238.653 207.571 239.107 207.117 239.721C206.657 240.342 206.359 241.107 206.234 241.912C206.227 241.96 206.222 242.157 206.199 242.182C206.166 242.218 206.035 242.202 205.985 242.209C205.812 242.232 205.641 242.268 205.472 242.314C205.161 242.401 204.858 242.528 204.572 242.694C203.454 243.341 202.656 244.554 202.264 245.92C201.854 247.353 201.861 248.994 202.352 250.401C202.431 250.628 202.525 250.848 202.636 251.057C202.704 251.185 202.726 251.185 202.682 251.319C202.633 251.469 202.543 251.614 202.484 251.76C202.294 252.237 202.16 252.742 202.076 253.258C201.938 254.105 201.87 254.995 202.006 255.848C202.069 256.244 202.179 256.631 202.348 256.984C202.433 257.164 202.534 257.334 202.647 257.492C202.706 257.574 202.768 257.652 202.833 257.727C202.871 257.77 202.92 257.808 202.952 257.856C203.029 257.972 203.045 257.876 203.005 258.048C202.949 258.287 202.823 258.523 202.745 258.756C202.665 258.997 202.593 259.24 202.527 259.486C202.393 259.984 202.28 260.49 202.209 261.006C202.073 261.996 202.097 263.05 202.497 263.959C202.668 264.347 202.913 264.688 203.21 264.953C203.356 265.083 203.513 265.195 203.679 265.286C203.764 265.334 203.872 265.354 203.911 265.45C203.953 265.554 203.891 265.759 203.877 265.875C203.754 266.882 203.692 267.939 203.948 268.925C204.183 269.834 204.701 270.636 205.374 271.167C206.68 272.197 208.439 272.139 209.811 271.314C210.168 271.099 210.503 270.832 210.801 270.518C211.561 271.715 213.124 271.677 214.234 271.336C215.618 270.911 216.728 269.784 217.367 268.305C218.242 269.551 220.077 269.147 220.684 267.794C220.832 267.463 220.92 267.099 220.964 266.729C220.986 266.535 220.972 266.34 220.989 266.147C221.011 265.902 221.151 265.663 221.231 265.426C221.388 264.964 221.485 264.487 221.489 263.988C221.492 263.728 221.463 263.475 221.442 263.216C221.423 262.984 221.478 262.768 221.51 262.538C221.155 262.607 220.723 262.495 220.388 262.374C220.06 262.256 219.753 261.945 219.521 261.66C218.984 261 218.656 260.135 218.431 259.273C217.938 257.382 218.14 255.114 219.764 254.076C220.521 253.593 222.787 253.595 223.688 253.833C224.636 254.085 225.71 256.533 225.763 256.763C225.796 256.905 225.779 257.082 225.891 257.176C226.136 257.385 226.541 257.023 226.722 256.844C227.035 256.536 227.258 256.125 227.451 255.71C227.872 254.803 228.211 253.832 228.45 252.84C228.635 252.075 228.753 251.286 228.995 250.541C229.235 249.799 229.613 249.136 230.202 248.716C230.843 248.259 231.577 248.018 232.28 247.731C232.977 247.446 233.662 247.098 234.202 246.495C234.321 246.362 234.436 246.221 234.532 246.064C234.607 245.941 234.682 245.704 234.797 245.626C234.976 245.504 235.237 245.821 235.391 245.936C236.154 246.503 236.79 247.294 237.304 248.159C237.814 249.018 238.233 249.845 238.573 250.805C238.826 251.517 238.983 252.429 239.427 253.012C239.625 253.272 241.099 253.43 241.576 253.203C242.053 252.975 242.588 252.385 242.748 252.015C242.912 251.636 242.951 251.22 242.881 250.805C242.84 250.561 242.756 250.333 242.71 250.094C242.671 249.892 242.636 249.702 242.552 249.518C242.394 249.168 242.123 248.917 241.796 248.812C242.136 248.445 242.418 248.006 242.613 247.515C242.815 247.005 242.987 246.385 243.036 245.825C243.075 245.371 243.014 244.9 242.802 244.509C242.579 244.099 242.184 243.832 241.842 243.576C242.364 243.098 242.811 242.516 243.178 241.872C243.892 240.62 244.334 239.042 243.971 237.549Z" fill="#191847"/>
<path fill-rule="evenodd" clip-rule="evenodd" d="M211.181 347.033L238.955 433.09L258.423 496.518H269.524L242.763 347.033L211.181 347.033Z" fill="#1F28CF"/>
<path fill-rule="evenodd" clip-rule="evenodd" d="M204.316 347.033C204.014 376.561 204.232 416.315 203.529 418.156C203.06 419.383 188.473 433.364 159.769 460.098L165.491 471.491C199.569 445.758 217.48 431.177 219.222 427.748C221.835 422.606 234.965 375.282 241.796 347.033H204.316Z" fill="#2B44FF"/>
<path fill-rule="evenodd" clip-rule="evenodd" d="M149.703 467.8L159.398 459.152L167.185 470.021C167.769 478.23 170.073 487.432 174.097 497.626L172.321 499.372L158.231 479.704L154.299 472.103L153.411 472.976L149.703 467.8Z" fill="#191847"/>
<path fill-rule="evenodd" clip-rule="evenodd" d="M257.393 508.693L257.971 494.489H270.101C275.853 499.223 283.363 503.056 292.63 505.987V508.693H270.679L263.17 507.34V508.693H257.393Z" fill="#191847"/>
<path fill-rule="evenodd" clip-rule="evenodd" d="M260.857 320.178L283.665 316.536C288.227 313.564 292.424 311.552 296.256 310.501C297.335 310.464 299.05 310.923 296.495 313.417C293.939 315.912 291.346 318.672 291.801 320.003C292.257 321.334 294.633 320.839 295.027 322.887C295.29 324.252 291.432 324.474 283.456 323.552L264.949 332.143L260.857 320.178ZM189.211 326.36L201.86 326.416C187.99 362.964 180.758 382.1 180.163 383.824C178.827 387.703 181.655 393.61 182.865 396.785C178.925 398.849 179.345 391.205 174.375 393.912C169.839 396.383 166.389 400.861 161.148 397.074C160.503 396.609 159.797 394.856 161.503 393.486C165.754 390.073 171.878 384.101 172.706 382.135C173.834 379.454 179.336 360.862 189.211 326.36Z" fill="#997659"/>
<path fill-rule="evenodd" clip-rule="evenodd" d="M223.858 279.384L233.762 280.157C236.201 305.996 249.487 322.317 279.233 316.792L283.185 350.067C255.383 354.274 231 341.241 226.003 305.952C224.709 296.817 223.688 287.31 223.858 279.384Z" fill="#AFB9C5"/>
<path fill-rule="evenodd" clip-rule="evenodd" d="M218.972 276.013L233.978 280.037C233.978 310.258 242.199 329.539 246.416 351.759H205.89C205.319 359.437 204.968 367.328 204.786 375.433H174.441C181.317 332.592 195.831 299.449 217.981 276.002H218.964L218.972 276.013Z" fill="#C5CFD6"/>
<path fill-rule="evenodd" clip-rule="evenodd" d="M212.284 308.645C211.239 327.477 211.853 341.848 214.126 351.759H205.89C207.021 336.549 209.016 322.178 212.284 308.645L212.284 308.645Z" fill="black" fill-opacity="0.1"/>
<path fill-rule="evenodd" clip-rule="evenodd" d="M84.9239 280.375C81.5702 277.474 78.9944 273.625 78.5446 268.845C77.2489 255.072 95.8098 254.596 100.44 260.785C105.07 266.974 107.477 284.463 103.132 286.562C101.399 287.399 97.3442 286.941 93.0125 285.214L98.4441 303.013L83.8819 305.807L84.9239 280.375Z" fill="#B28B67"/>
<path fill-rule="evenodd" clip-rule="evenodd" d="M90.9764 267.97C92.8621 276.028 94.9995 279.836 97.3886 279.395C100.972 278.733 103.623 275.778 105.196 275.488C106.342 275.276 106.332 276.833 105.754 278.092C105.278 279.131 102.37 280.584 102.603 282.016C102.836 283.447 105.067 281.894 105.206 282.743C105.434 284.147 106.288 286.709 103.972 287.137C101.628 287.57 94.7604 287.912 93.0125 284.464C91.8845 282.239 90.6067 277.433 89.1792 270.045C89.0341 270.053 88.8879 270.071 88.7411 270.098C86.7327 270.469 85.3835 272.483 85.7276 274.596C85.9023 275.669 86.4798 276.561 87.2688 277.131C86.6309 278.536 85.9004 280.015 85.0391 281.562C80.5621 279.749 76.328 272.803 79.1235 264.864C79.6457 261.131 81.8222 258.787 84.6127 257.37C86.8184 255.885 89.2657 255.312 91.4499 255.554C95.5913 255.169 99.4491 255.805 100.609 256.392C101.271 260.458 100.718 261.802 94.306 262.877C92.8768 264.04 91.9136 265.767 90.9764 267.97Z" fill="#191847"/>
<path fill-rule="evenodd" clip-rule="evenodd" d="M85.3661 358.923L109.168 442.238L123.96 512.111L132.042 512.965L113.138 361.86L85.3661 358.923Z" fill="#997659"/>
<path fill-rule="evenodd" clip-rule="evenodd" d="M79.8321 358.985C77.16 386.99 69.2849 424.239 68.3856 425.907C67.786 427.019 49.2173 439.997 12.6793 464.843L17.6992 471.584C60.0413 451.451 82.2811 439.855 84.4186 436.798C87.6249 432.211 100.496 388.24 110.055 362.192L79.8321 358.985Z" fill="#B28B67"/>
<path fill-rule="evenodd" clip-rule="evenodd" d="M12.124 463.59C10.2179 464.09 8.88905 464.613 8.13742 465.159C7.22327 465.824 5.99458 466.956 4.45136 468.554C5.18455 469.678 11.7739 479.78 24.2193 498.86C27.1894 497.861 28.2189 496.442 27.308 494.603C26.3971 492.764 25.6545 491.226 25.0803 489.989L21.8168 471.595C21.754 471.241 21.4319 471.006 21.0974 471.072C21.0917 471.073 21.086 471.074 21.0803 471.075L18.4176 471.677C16.7015 470.609 15.5232 469.584 14.8827 468.601C14.3622 467.804 13.9475 466.481 13.6385 464.632L13.6385 464.632C13.5199 463.923 12.8804 463.448 12.21 463.571C12.1811 463.576 12.1524 463.582 12.124 463.59Z" fill="#E4E4E4"/>
<path fill-rule="evenodd" clip-rule="evenodd" d="M120.257 508.715C119.409 510.531 118.946 511.907 118.867 512.844C118.771 513.985 118.816 515.668 119.001 517.894C120.288 518.03 131.856 519.254 153.703 521.565C154.863 518.597 154.482 516.889 152.56 516.439C150.637 515.989 149.042 515.598 147.773 515.265L132.267 506.17C131.968 505.995 131.592 506.1 131.427 506.404C131.424 506.409 131.422 506.414 131.419 506.42L130.164 508.894C128.293 509.566 126.795 509.843 125.671 509.724C124.757 509.627 123.527 509.114 121.981 508.186L121.981 508.186C121.388 507.829 120.634 508.031 120.298 508.636C120.283 508.662 120.269 508.688 120.257 508.715Z" fill="#E4E4E4"/>
<path fill-rule="evenodd" clip-rule="evenodd" d="M94.1387 501.886L132.877 501.626L115.864 362.188L81.4919 358.549L94.1387 501.886Z" fill="#69A1AC"/>
<path fill-rule="evenodd" clip-rule="evenodd" d="M21.2799 455.795L43.791 489.316C72.736 462.129 89.7856 444.194 94.9398 435.512C100.094 426.83 106.114 402.469 113 362.428L74.4211 358.336C69.5307 393.686 66.6833 412.153 65.8789 413.736C65.0745 415.32 50.2082 429.34 21.2799 455.795Z" fill="#89C5CC"/>
<path fill-rule="evenodd" clip-rule="evenodd" d="M134.243 348.361L155.038 361.962C160.467 363.027 165.052 364.541 168.795 366.501C169.702 367.244 170.851 368.808 167.34 368.824C163.829 368.84 160.138 369.024 159.758 370.332C159.379 371.639 161.611 372.971 160.776 374.763C160.219 375.958 156.925 373.367 150.895 366.99L130.832 360.113L134.243 348.361ZM59.164 355.375L71.9861 354.322C66.2581 382.196 63.1456 396.992 62.6486 398.71C61.5303 402.576 64.9921 408.018 66.5228 410.971C62.4998 413.324 62.3523 405.908 57.2854 408.976C52.6606 411.777 49.3441 416.414 43.4854 413.241C42.7651 412.85 41.8794 411.224 43.5845 409.745C47.8327 406.062 53.8727 399.737 54.5989 397.764C55.5892 395.073 57.1109 380.943 59.164 355.375Z" fill="#B28B67"/>
<path fill-rule="evenodd" clip-rule="evenodd" d="M91.3451 295.842L96.5523 294.432C117.607 310.581 128.44 344.16 153.947 360.244L148.775 368.295C106.639 366.452 92.9136 325.538 91.3451 295.842Z" fill="#E87613"/>
<path fill-rule="evenodd" clip-rule="evenodd" d="M73.8623 368.18C95.0459 366.333 110.628 364.975 120.609 364.105C122.745 363.919 122.079 360.677 121.637 359.051C116.538 340.282 100.972 320.927 98.7865 293.767L85.1219 292.696C75.5019 312.722 73.5325 336.516 73.8623 368.18Z" fill="#DDE3E9"/>
<path fill-rule="evenodd" clip-rule="evenodd" d="M69.6555 312.924C67.6508 312.497 65.9894 311.238 64.6714 309.147C58.9894 300.135 60.3505 294.781 65.4757 292.613C70.6009 290.445 75.5764 293.555 83.9607 292.823C84.4168 292.783 84.8369 292.777 85.2211 292.805L89.4591 292.693C105.057 335.218 110.728 364.004 106.472 379.049L69.7102 382.258C67.9653 387.845 66.2455 392.568 64.5508 396.426L54.534 397.301C50.9915 364.99 56.032 336.865 69.6555 312.924Z" fill="#FF9B21"/>
<path fill-rule="evenodd" clip-rule="evenodd" d="M75.7889 359.126C77.7723 369.307 80.2524 376.606 83.2292 381.022L69.5791 382.212C71.615 375.693 73.6849 367.998 75.7889 359.126Z" fill="black" fill-opacity="0.1"/>
<path fill-rule="evenodd" clip-rule="evenodd" d="M188.528 368.032C185.866 364.374 184.065 359.89 184.366 354.866C185.233 340.391 202.442 343.575 205.789 350.881C209.136 358.187 208.739 376.719 204.412 378.025C202.687 378.546 199.012 377.27 195.271 374.63L197.619 394.081H183.755L188.528 368.032Z" fill="#B28B67"/>
<path fill-rule="evenodd" clip-rule="evenodd" d="M197.887 342.461C196.06 342.11 191.14 341.869 190.233 341.869C189.653 341.869 189.025 342.024 188.681 341.401C188.4 340.89 188.503 340.027 188.419 339.435C188.322 338.746 188.183 338.067 188.043 337.39C187.645 335.462 187.042 333.627 186.199 331.905C184.618 328.674 182.3 326.143 179.375 324.67C176.144 323.044 172.489 322.672 169.014 323.001C165.295 323.354 161.929 324.792 158.418 326.144C155.073 327.433 151.568 327.941 148.069 327.311C144.543 326.677 141.879 324.44 138.906 322.316C135.861 320.142 132.382 318.72 128.783 319.047C125.424 319.352 122.327 320.976 119.549 323.146C116.95 325.176 114.805 327.619 113.595 331.056C112.292 334.754 112.293 338.813 114.435 342.081C117.54 346.818 123.304 348.043 128.099 347.921C130.873 347.851 133.597 347.258 136.215 346.18C139.707 344.741 142.725 342.304 145.992 340.326C147.526 339.397 149.11 338.635 150.772 338.086C152.384 337.553 153.971 337.308 155.431 338.449C156.975 339.655 158.358 340.84 160.125 341.595C161.819 342.32 163.614 342.725 165.419 342.708C168.932 342.677 172.394 341.395 175.806 340.537C178.588 339.837 181.565 339.139 184.401 339.812C185.584 340.093 187.313 340.673 187.74 342.113C180.546 343.64 177.72 354.058 179.749 361.706C180.843 365.834 187.423 370.66 189.982 368.489C191.603 367.115 190.619 365.31 189.982 364.118C188.762 361.836 188.345 358.905 190.602 357.317C192.548 355.947 194.595 359.2 194.634 359.197C195.169 359.147 199.791 356.086 202.976 351.619C206.118 351.837 206.595 349.411 205.845 347.427C205.095 345.443 200.412 342.946 197.887 342.461Z" fill="#191847"/>
<path fill-rule="evenodd" clip-rule="evenodd" d="M180.296 450.237L223.219 534.265L255.399 605.303H262.331L208.412 450.237L180.296 450.237Z" fill="#997659"/>
<path fill-rule="evenodd" clip-rule="evenodd" d="M251.161 602.023C250.515 604.043 250.192 605.555 250.192 606.557C250.192 607.777 250.365 609.557 250.712 611.897C251.921 611.897 262.781 611.897 283.293 611.897C284.14 608.62 283.651 606.85 281.827 606.589C280.003 606.328 278.487 606.092 277.281 605.881L262.138 597.976C261.846 597.824 261.505 597.977 261.375 598.319C261.373 598.324 261.37 598.33 261.368 598.336L260.395 601.101C258.706 602.024 257.334 602.485 256.278 602.485C255.421 602.485 254.236 602.079 252.724 601.268L252.724 601.268C252.144 600.957 251.459 601.255 251.193 601.934C251.181 601.963 251.171 601.993 251.161 602.023Z" fill="#E4E4E4"/>
<path fill-rule="evenodd" clip-rule="evenodd" d="M246.462 593.927L259.829 589.193C253.972 568.692 246.795 546.132 238.295 521.513C229.796 496.893 220.668 473.135 210.911 450.237H173.158C184.005 479.202 195.505 505.519 207.657 529.19C219.809 552.862 232.744 574.441 246.462 593.927Z" fill="#DB2721"/>
<path fill-rule="evenodd" clip-rule="evenodd" d="M177.475 450.237C173.423 479.765 165.61 517.49 164.872 518.654C164.381 519.431 146.683 526.375 111.78 539.486L113.277 546.643C154.899 539.611 176.831 534.156 179.071 530.276C182.432 524.457 199.213 478.486 205.712 450.237H177.475Z" fill="#B28B67"/>
<path fill-rule="evenodd" clip-rule="evenodd" d="M124.049 533.3L126.686 544.827C157.817 548.024 176.892 545.714 183.91 537.896C190.929 530.079 198.928 500.859 207.907 450.237H171.907C166.218 491.69 163.037 513.286 162.365 515.026C161.693 516.766 148.921 522.858 124.049 533.3Z" fill="#FF4133"/>
<path fill-rule="evenodd" clip-rule="evenodd" d="M113.501 536.535C111.687 536.159 110.358 536.063 109.514 536.245C108.486 536.467 107.017 536.99 105.106 537.815C105.316 539.204 107.196 551.691 110.747 575.274C113.654 575.651 115.06 574.768 114.964 572.623C114.869 570.478 114.805 568.693 114.774 567.267L118.81 548.419C118.887 548.057 118.699 547.692 118.389 547.604C118.384 547.603 118.379 547.602 118.373 547.6L115.876 546.984C114.807 545.21 114.181 543.716 113.998 542.502C113.849 541.516 113.986 540.081 114.407 538.195L114.407 538.195C114.569 537.472 114.199 536.738 113.581 536.555C113.555 536.547 113.528 536.541 113.501 536.535Z" fill="#E4E4E4"/>
<path fill-rule="evenodd" clip-rule="evenodd" d="M229.998 439.489L246.362 458.181C251.123 460.559 255.024 463.185 258.065 466.059C258.749 467.025 259.494 468.876 256.276 468.048C253.058 467.219 249.642 466.518 249.037 467.743C248.432 468.968 250.214 470.846 249.097 472.449C248.352 473.519 245.846 470.118 241.579 462.248L224.563 450.501L229.998 439.489ZM157.366 442.125L169.437 442.181C161.984 470.355 157.96 485.305 157.366 487.029C156.029 490.907 158.858 496.815 160.067 499.989C156.127 502.054 156.547 494.409 151.578 497.116C147.041 499.587 143.591 504.065 138.35 500.278C137.706 499.813 136.999 498.06 138.705 496.69C142.956 493.278 149.081 487.305 149.908 485.339C151.037 482.659 153.522 468.254 157.366 442.125Z" fill="#B28B67"/>
<path fill-rule="evenodd" clip-rule="evenodd" d="M191.671 382.813L196.666 381.81C205.266 406.965 220.28 429.822 241.709 450.381L225.516 473.417C204.09 444.144 190.883 413.943 191.671 382.813Z" fill="#191847"/>
<path fill-rule="evenodd" clip-rule="evenodd" d="M169.896 456.316H214.376C204.071 426.977 198.918 402.054 198.918 381.547L185.501 379.206C174.956 399.064 171.978 423.514 169.896 456.316Z" fill="#DDE3E9"/>
<path fill-rule="evenodd" clip-rule="evenodd" d="M185.217 379.218C185.219 379.214 185.22 379.21 185.222 379.206H186.098C187.146 379.249 188.742 379.325 190.887 379.435L194.129 390.284C194.472 403.511 196.474 430.168 200.137 470.254H170.98C171.056 473.023 171.182 475.817 171.358 478.637H149.678C152.921 435.797 164.764 402.653 185.206 379.206L185.217 379.218V379.218Z" fill="#2F3676"/>
<path fill-rule="evenodd" clip-rule="evenodd" d="M172.906 434.829C173.736 452.087 175.813 463.984 179.139 470.521H170.987C170.63 458.104 171.27 446.207 172.906 434.829V434.829Z" fill="black" fill-opacity="0.1"/>
<path fill-rule="evenodd" clip-rule="evenodd" d="M177.47 449.552L191.847 441.726V449.552H177.47Z" fill="white" fill-opacity="0.2"/>
<path fill-rule="evenodd" clip-rule="evenodd" d="M314.078 305.041C310.703 302.425 307.982 298.75 307.18 293.888C304.868 279.879 322.231 277.376 327.065 283.231C331.898 289.087 335.547 306.793 331.641 309.421C330.083 310.468 326.245 310.438 322.047 309.135L328.556 326.831L315.126 331.281L314.078 305.041Z" fill="#784931"/>
<path fill-rule="evenodd" clip-rule="evenodd" d="M320.001 277.235C318.021 277.187 315.31 277.832 314.225 278.342C314.459 276.382 314.264 274.346 313.621 272.511C312.997 270.727 311.917 269.386 310.875 267.952C310.394 267.292 309.873 266.648 309.222 266.234C308.559 265.813 307.802 265.638 307.059 265.679C306.3 265.72 305.554 265.978 304.877 266.384C304.577 266.564 304.331 266.823 304.041 267.016C303.744 267.215 303.537 267.035 303.252 266.88C302.568 266.506 301.688 266.496 300.96 266.627C300.143 266.773 299.354 267.177 298.668 267.72C298 268.249 297.403 268.951 297.03 269.811C296.864 270.195 296.729 270.613 296.678 271.043C296.657 271.22 296.669 271.317 296.545 271.419C296.431 271.514 296.282 271.564 296.163 271.657C295.01 272.561 294.185 274.036 293.927 275.672C293.776 276.626 293.954 278.162 294.38 279.81C294.806 281.458 297.107 285.373 298.692 286.56C300.106 287.619 301.923 288.031 303.563 287.938C302.846 289.619 302.549 291.527 302.437 293.405C302.315 295.445 302.419 297.49 302.746 299.502C303.057 301.413 303.5 303.398 304.303 305.107C305.053 306.705 306.14 307.864 307.621 308.343C308.299 308.562 308.998 308.665 309.695 308.741C310.381 308.815 311.068 308.881 311.757 308.825C313.06 308.718 314.472 308.206 315.164 306.767C315.414 306.248 315.673 305.614 315.809 305.035C315.858 304.827 315.886 304.692 315.736 304.552C315.557 304.385 315.308 304.293 315.103 304.184C313.929 303.56 313.049 302.504 312.559 301.07C312.061 299.614 311.967 297.558 313.09 296.488C314.475 295.168 316.419 295.538 318.014 295.953C318.055 293.353 318.776 290.79 320.434 289.066C322.267 287.159 324.66 286.229 326.591 284.477C327.095 284.02 327.6 283.523 327.889 282.832C328.01 282.542 328.145 282.174 328.144 281.844C328.143 281.41 327.838 281.145 327.591 280.887C326.279 279.517 321.982 277.284 320.001 277.235Z" fill="#191847"/>
<path fill-rule="evenodd" clip-rule="evenodd" d="M318.247 385.883L339.19 471.607L354.47 534.79H365.615L349.377 385.883H318.247Z" fill="#191847"/>
<path fill-rule="evenodd" clip-rule="evenodd" d="M312.646 385.883C312.162 430.066 310.51 454.165 310.002 458.179C309.493 462.193 301.803 487.73 286.93 534.79H298.476C317.409 489.644 327.978 464.107 330.183 458.179C332.388 452.251 339.192 428.152 349.44 385.883H312.646Z" fill="#2F3676"/>
<path fill-rule="evenodd" clip-rule="evenodd" d="M285.898 547.023L286.476 532.818H298.607C304.359 537.553 311.868 541.386 321.135 544.317V547.023H299.185L291.675 545.67V547.023H285.898Z" fill="#191847"/>
<path fill-rule="evenodd" clip-rule="evenodd" d="M352.906 547.023L353.484 532.818H365.615C371.367 537.553 378.876 541.386 388.143 544.317V547.023H366.192L358.683 545.67V547.023H352.906Z" fill="#191847"/>
<path fill-rule="evenodd" clip-rule="evenodd" d="M365.359 368.113L385.079 381.141C390.189 382.026 394.515 383.394 398.056 385.246C398.919 385.965 400.021 387.508 396.728 387.649C393.434 387.791 389.974 388.11 389.639 389.448C389.303 390.785 391.418 392.054 390.662 393.899C390.158 395.129 387.028 392.623 381.271 386.381L362.343 380.135L365.359 368.113ZM286.474 377.48L296.809 377.008C290.089 406.22 286.456 421.686 285.912 423.405C284.686 427.274 287.68 432.919 288.979 435.968C285.101 438.191 285.303 430.679 280.413 433.585C275.949 436.237 272.628 440.8 267.282 437.357C266.625 436.933 265.87 435.252 267.536 433.823C271.687 430.263 277.639 424.098 278.41 422.13C279.462 419.445 282.15 404.562 286.474 377.48Z" fill="#B28B67"/>
<path fill-rule="evenodd" clip-rule="evenodd" d="M321.371 320.682L327.257 316.95C339.434 339.589 355.656 360.537 379.799 375.983L376.153 387.518C355.682 378.882 336.628 372.851 326.63 355.429C323.274 349.582 322.327 328.332 321.371 320.682Z" fill="#C5CFD6"/>
<path fill-rule="evenodd" clip-rule="evenodd" d="M310.361 394.001C328.584 392.331 342.666 389.288 352.607 384.871C353.839 384.324 353.666 381.813 352.823 380.265C339.686 356.169 329.94 334.773 327.2 316.657C325.663 318.006 322.733 318.791 318.412 319.013C309.904 340.131 307.935 362.678 310.361 394.001Z" fill="#323337"/>
<path fill-rule="evenodd" clip-rule="evenodd" d="M315.378 317.978L320.101 316.957C322.334 324.216 341.139 424.982 356.864 455.875L298.921 468.401C295.581 437.708 299.97 399.022 305.388 366.272C297.934 377.605 292.607 395.228 289.408 419.142L278.067 418.259C280.049 376.213 292.165 343.005 314.417 318.635C314.45 318.477 314.482 318.321 314.514 318.165L314.932 318.074C315.069 317.927 315.206 317.779 315.343 317.632L315.378 317.978Z" fill="#DDE3E9"/>
<mask id="mask0" mask-type="alpha" maskUnits="userSpaceOnUse" x="45" y="0" width="670" height="670">
<circle cx="380" cy="335" r="335" fill="#FFEFD8"/>
</mask>
<g mask="url(#mask0)">
<path fill-rule="evenodd" clip-rule="evenodd" d="M595.354 286.408C591.632 293.968 585.097 311.809 587.252 315.401L604.547 319.799C604.556 319.766 604.565 319.733 604.573 319.7C611.142 320.559 617.341 315.922 618.814 308.753L621.534 295.513C623.115 287.82 618.656 280.124 611.575 278.323L610.382 278.02C604.03 276.405 597.727 280.082 595.354 286.408Z" fill="#191847"/>
<path fill-rule="evenodd" clip-rule="evenodd" d="M612.611 304.674C616.074 301.929 618.808 298.171 619.474 293.332C621.392 279.391 602.984 277.755 598.103 283.768C593.223 289.781 590.03 307.436 594.248 309.842C595.93 310.802 599.978 310.587 604.358 309.098L598.149 326.881L612.48 330.628L612.611 304.674Z" fill="#B28B67"/>
<path fill-rule="evenodd" clip-rule="evenodd" d="M609.211 301.242C606.984 308.699 605.458 317.474 606.998 320.04L624.293 324.435C628.962 306.659 618.214 311.271 621.703 294.304C621.248 293.546 620.823 292.802 620.387 292.143L620.509 291.649C618.871 284.289 615.75 280.024 611.146 278.854C604.24 277.099 601.349 280.003 598.889 282.468C599.223 287.947 604.453 290.075 608.582 294.487C609.247 294.137 610.027 294.024 610.811 294.223C612.622 294.683 613.766 296.637 613.365 298.587C612.964 300.537 611.171 301.744 609.359 301.284C609.309 301.271 609.26 301.257 609.211 301.242Z" fill="#191847"/>
<path fill-rule="evenodd" clip-rule="evenodd" d="M632.566 448.74C618.068 453.798 605.501 456.578 594.866 457.08C584.23 457.582 574.227 454.686 564.858 448.393C579.038 443.234 590.769 440.435 600.052 439.997C609.335 439.559 620.173 442.473 632.566 448.74Z" fill="#D07474"/>
<path fill-rule="evenodd" clip-rule="evenodd" d="M582.434 464.209C582.568 463.971 582.678 463.715 582.764 463.439C584.528 457.727 613.861 395.611 616.599 384.38L581.084 386.084C579.002 394.623 570.177 448.004 569.049 458.625C564.881 475.491 557.015 529.845 555.896 533.638C554.719 537.629 562.298 541.363 564.102 536.44C566.971 528.607 573.701 506.993 576.57 493.855C579.259 481.537 581.41 470.469 582.434 464.209Z" fill="#997659"/>
<path fill-rule="evenodd" clip-rule="evenodd" d="M611.473 470.338C625.992 473.566 678.837 478.125 682.486 479.063C686.24 480.028 689.193 471.619 684.539 470.052C677.134 467.559 656.777 461.953 644.482 459.857C634.592 458.171 625.575 456.84 619.527 456.098C619.371 437.866 620.102 394.058 618.232 384.694L586.907 386.198C588.701 395.178 603.48 460.618 606.02 467.117C606.836 469.442 609.051 470.38 611.473 470.338Z" fill="#B28B67"/>
<path fill-rule="evenodd" clip-rule="evenodd" d="M566.679 535.762C567.434 537.684 567.83 539.13 567.865 540.1C567.908 541.281 567.788 543.012 567.503 545.295C566.224 545.358 554.73 545.923 533.022 546.989C532.01 543.861 532.465 542.124 534.386 541.776C536.307 541.428 537.903 541.121 539.172 540.854L554.919 532.417C555.222 532.254 555.589 532.385 555.739 532.708C555.741 532.714 555.744 532.719 555.746 532.725L556.874 535.35C558.694 536.155 560.162 536.53 561.28 536.475C562.188 536.431 563.427 535.976 564.998 535.113L564.998 535.113C565.601 534.781 566.337 535.034 566.642 535.678C566.656 535.705 566.668 535.734 566.679 535.762Z" fill="#E4E4E4"/>
<path fill-rule="evenodd" clip-rule="evenodd" d="M618.183 384.37C604.225 380.774 591.165 381.401 579.003 386.251C575.488 407.54 565.381 416.408 564.731 448.821C585.953 458.974 610.967 438.633 632.791 448.481C638.357 432.974 628.448 396.749 618.183 384.37Z" fill="#EEE380"/>
<path fill-rule="evenodd" clip-rule="evenodd" d="M583.728 341.846L564.269 326.179C561.334 321.155 558.325 317.142 555.243 314.139C554.266 313.513 552.489 312.952 553.78 316.465C555.07 319.978 556.281 323.735 555.294 324.605C554.307 325.476 552.328 323.745 551.092 325.253C550.268 326.258 553.727 328.576 561.469 332.205L574.853 349.665L583.728 341.846ZM549.529 347.307L540.984 340.408C540.351 334.88 539.136 331.961 537.34 331.651C536.044 330.743 537.616 337.847 535.067 336.861C532.517 335.875 526.758 329.745 525.525 330.621C523.702 331.918 524.567 336.891 525.987 339.517C528.642 344.424 531.107 346.341 537.416 349.323C540.715 350.882 544.163 353.523 547.76 357.245L549.529 347.307Z" fill="#997659"/>
<path fill-rule="evenodd" clip-rule="evenodd" d="M594.343 340.56C586.994 339.346 577.388 336.158 567.811 327.36L562.463 336.649C568.721 345.513 578.084 353.443 586.999 354.537C594.024 355.399 598.742 346.791 594.343 340.56Z" fill="#D07474"/>
<path fill-rule="evenodd" clip-rule="evenodd" d="M582.497 355.004C574.429 355.914 561.646 351.415 544.149 341.505C538.324 351.024 535.314 357.985 535.118 362.389C549.776 373.735 562.794 379.789 573.892 381.762C572.651 388.866 572.611 395.8 574.54 402.438C578.506 416.084 612.485 409.231 623.127 413.243C632.959 390.204 620.937 378.379 622.837 362.963C624.918 346.08 615.631 318.174 613.791 317.891L597.008 315.313C594.484 328.063 588.062 341.555 582.497 355.004Z" fill="#D07474"/>
</g>
<path fill-rule="evenodd" clip-rule="evenodd" d="M527.176 403.577C529.965 400.199 531.853 396.06 531.537 391.422C530.628 378.058 512.597 380.998 509.09 387.743C505.583 394.488 505.999 411.596 510.532 412.802C512.34 413.283 516.191 412.105 520.111 409.668L517.651 427.625H532.177L527.176 403.577Z" fill="#D6AB84"/>
<path fill-rule="evenodd" clip-rule="evenodd" d="M514.828 380.396C516.813 379.772 519.694 379.56 520.906 379.703C520.217 377.999 519.943 376.1 520.166 374.251C520.383 372.455 521.161 370.925 521.881 369.322C522.213 368.583 522.589 367.848 523.149 367.283C523.72 366.707 524.443 366.327 525.2 366.146C525.976 365.96 526.787 365.976 527.564 366.144C527.907 366.219 528.216 366.381 528.553 366.471C528.898 366.563 529.065 366.34 529.316 366.116C529.919 365.577 530.804 365.31 531.568 365.215C532.425 365.108 533.314 365.241 534.131 365.532C534.926 365.815 535.691 366.274 536.266 366.943C536.522 367.241 536.754 367.58 536.905 367.955C536.967 368.108 536.977 368.199 537.126 368.256C537.263 368.308 537.424 368.309 537.566 368.359C538.937 368.838 540.11 369.931 540.748 371.335C541.121 372.154 541.297 373.596 541.249 375.212C541.201 376.828 539.786 381.045 538.463 382.583C537.283 383.956 535.547 384.861 533.872 385.258C534.984 386.569 535.724 388.207 536.271 389.874C536.866 391.684 537.234 393.564 537.369 395.48C537.498 397.301 537.51 399.226 537.097 401.008C536.71 402.674 535.882 404.041 534.501 404.908C533.868 405.305 533.187 405.604 532.502 405.876C531.827 406.145 531.15 406.406 530.443 406.557C529.105 406.843 527.563 406.794 526.533 405.695C526.161 405.299 525.753 404.801 525.482 404.317C525.384 404.143 525.326 404.029 525.444 403.859C525.586 403.655 525.815 403.499 525.997 403.34C527.036 402.431 527.679 401.218 527.842 399.777C528.006 398.314 527.625 396.426 526.247 395.788C524.545 395 522.672 395.904 521.159 396.747C520.517 394.407 519.197 392.3 517.128 391.226C514.839 390.038 512.212 389.899 509.86 388.88C509.247 388.615 508.623 388.313 508.172 387.772C507.983 387.546 507.762 387.253 507.686 386.954C507.588 386.561 507.833 386.232 508.023 385.925C509.029 384.302 512.843 381.021 514.828 380.396Z" fill="#212038"/>
<path fill-rule="evenodd" clip-rule="evenodd" d="M460.221 490.755C455.875 484.675 445.012 488.7 445.019 493.734C445.036 506.951 456.727 569.698 457.337 573.659C457.947 577.621 464.486 578.917 464.867 573.967C465.473 566.091 466.599 538.787 465.472 526.085C465.143 522.375 464.796 518.788 464.447 515.428C470.591 526.816 479.934 542.912 492.476 563.716L499.446 560.431C493.973 541.824 489.484 528.688 485.981 521.023C479.983 507.899 474.359 496.66 471.992 492.701C468.865 487.472 463.794 488.166 460.221 490.755Z" fill="#D6AB84"/>
<path fill-rule="evenodd" clip-rule="evenodd" d="M498.948 550.098L475.023 491.624C469.292 482.112 453.223 493.56 455.177 499.077C459.615 511.602 482.182 552.152 483.504 555.883L498.948 550.098Z" fill="#D8860B"/>
<path fill-rule="evenodd" clip-rule="evenodd" d="M444.414 498.299C444.414 514.873 451.455 553.832 451.46 557.482L468.518 556.888C465.536 523.016 464.279 505.965 464.745 505.735C465.796 505.219 507.808 511.734 520.408 512.226C538.577 512.936 546.093 501.435 546.703 479.611H511.509C481.414 483.318 461.635 485.895 452.17 487.345C446.093 488.275 444.414 493.733 444.414 498.299Z" fill="#D8860B"/>
<path fill-rule="evenodd" clip-rule="evenodd" d="M500.407 558.54C501.498 560.146 502.151 561.39 502.366 562.273C502.628 563.347 502.834 564.96 502.983 567.114C501.754 567.437 490.704 570.347 469.834 575.843C468.269 573.184 468.387 571.496 470.187 570.777C471.987 570.058 473.478 569.444 474.66 568.935L488.37 557.918C488.634 557.706 489.015 557.75 489.22 558.015C489.223 558.02 489.227 558.025 489.23 558.029L490.814 560.203C492.73 560.562 494.225 560.601 495.3 560.318C496.172 560.088 497.291 559.414 498.654 558.294L498.654 558.294C499.177 557.865 499.939 557.944 500.356 558.47C500.373 558.493 500.391 558.516 500.407 558.54Z" fill="#E4E4E4"/>
<path fill-rule="evenodd" clip-rule="evenodd" d="M465.793 564.633C466.47 566.498 466.808 567.893 466.808 568.819C466.808 569.945 466.627 571.589 466.263 573.749C464.997 573.749 453.617 573.749 432.125 573.749C431.238 570.723 431.75 569.09 433.661 568.848C435.573 568.607 437.16 568.389 438.425 568.195L454.292 560.897C454.597 560.756 454.955 560.898 455.091 561.213C455.093 561.218 455.095 561.224 455.098 561.229L456.117 563.782C457.887 564.633 459.325 565.059 460.431 565.059C461.33 565.059 462.571 564.685 464.155 563.936L464.155 563.936C464.762 563.648 465.481 563.924 465.759 564.551C465.771 564.578 465.783 564.605 465.793 564.633Z" fill="#E4E4E4"/>
<path d="M436.243 573.749H464.085C465.255 573.749 466.203 574.728 466.203 575.935C466.203 577.142 465.255 578.12 464.085 578.12H436.243C435.073 578.12 434.124 577.142 434.124 575.935C434.124 574.728 435.073 573.749 436.243 573.749Z" fill="#2F3676"/>
<path fill-rule="evenodd" clip-rule="evenodd" d="M548.519 483.202H483.756C480.413 483.202 477.703 485.998 477.703 489.446V520.045H552.151C553.488 520.045 554.572 518.927 554.572 517.547V489.446C554.572 485.998 551.862 483.202 548.519 483.202Z" fill="#2F3676"/>
<path fill-rule="evenodd" clip-rule="evenodd" d="M483.756 483.202H482.428C479.464 483.202 476.936 485.417 476.455 488.435L463.177 571.876H469.645" fill="#2F3676"/>
<path d="M466.203 584.365C460.186 584.365 455.308 579.332 455.308 573.125C455.308 566.917 460.186 561.884 466.203 561.884C472.22 561.884 477.098 566.917 477.098 573.125C477.098 579.332 472.22 584.365 466.203 584.365Z" fill="#212038"/>
<path fill-rule="evenodd" clip-rule="evenodd" d="M546.703 583.116C572.108 583.116 592.703 561.868 592.703 535.657C592.703 509.446 572.108 488.198 546.703 488.198C521.298 488.198 500.703 509.446 500.703 535.657C500.703 561.868 521.298 583.116 546.703 583.116ZM546.703 574.373C525.978 574.373 509.177 557.039 509.177 535.657C509.177 514.274 525.978 496.94 546.703 496.94C567.428 496.94 584.229 514.274 584.229 535.657C584.229 557.039 567.428 574.373 546.703 574.373Z" fill="#212038"/>
<path d="M544.282 494.442H549.124V576.871H544.282V494.442Z" fill="#212038"/>
<path d="M517.6 507.397L519.312 505.631C519.785 505.143 520.551 505.143 521.024 505.631L575.806 562.151C576.279 562.638 576.279 563.429 575.806 563.917L574.094 565.683C573.621 566.171 572.855 566.171 572.382 565.683L517.6 509.163C517.127 508.675 517.127 507.885 517.6 507.397Z" fill="#212038"/>
<path d="M506.756 536.906V534.408C506.756 533.718 507.298 533.159 507.966 533.159H585.44C586.109 533.159 586.651 533.718 586.651 534.408V536.906C586.651 537.596 586.109 538.155 585.44 538.155H507.966C507.298 538.155 506.756 537.596 506.756 536.906Z" fill="#212038"/>
<path d="M519.312 565.683L517.6 563.917C517.127 563.429 517.127 562.638 517.6 562.151L572.382 505.631C572.855 505.143 573.621 505.143 574.094 505.631L575.806 507.397C576.279 507.885 576.279 508.675 575.806 509.163L521.024 565.683C520.551 566.171 519.785 566.171 519.312 565.683Z" fill="#212038"/>
<path fill-rule="evenodd" clip-rule="evenodd" d="M485.296 415.348L462.354 408.243C458.074 404.805 454.037 402.292 450.243 400.703C449.14 400.489 447.313 400.613 449.596 403.285C451.879 405.957 454.163 408.873 453.512 409.993C452.86 411.113 450.485 410.269 449.798 412.043C449.34 413.226 453.274 414.073 461.601 414.585L479.438 425.416L485.296 415.348ZM487.323 457.079L468.016 471.707C462.78 473.164 458.405 474.978 454.892 477.148C454.062 477.928 453.059 479.508 456.5 479.235C459.942 478.962 463.574 478.834 464.049 480.046C464.524 481.257 462.441 482.705 463.401 484.339C464.041 485.429 467.065 482.697 472.472 476.144L491.591 467.964L487.323 457.079Z" fill="#D6AB84"/>
<path fill-rule="evenodd" clip-rule="evenodd" d="M517.311 417.687C506.797 437.914 491.594 453.418 469.553 469.536L477.899 479.244C502.508 469.809 515.496 464.116 521.875 445.006C523.475 440.21 524.594 424.921 525.554 416.877L517.311 417.687Z" fill="#D8860B"/>
<path fill-rule="evenodd" clip-rule="evenodd" d="M546.703 485.075H500.098C510.655 451.857 516.048 429.058 516.276 416.679C516.288 416.048 517.418 414.936 517.918 415.081C521.573 416.146 525.484 415.748 529.652 413.886C540.701 432.22 544.521 454.792 546.703 485.075Z" fill="#F2F2F2"/>
<path fill-rule="evenodd" clip-rule="evenodd" d="M525.675 413.916C512.316 414.029 490.641 416.546 465.645 408.266L463.177 420.989C482.069 433.525 501.199 443.236 517.961 441.857C510.682 474.07 511.018 500.441 527.088 500.441C534.762 500.441 543.046 500.441 551.938 500.441C555.885 473.076 545.512 435.133 535.896 415.995C535.528 415.264 534.747 413.886 532.905 413.886C531.3 413.886 528.894 413.886 525.684 413.886C525.681 413.896 525.678 413.906 525.675 413.916Z" fill="#D8860B"/>
</svg>
