<svg width="70" height="70" viewBox="0 0 70 70" fill="none" xmlns="http://www.w3.org/2000/svg">
<rect width="70" height="70" rx="35" fill="#E15249"/>
<path d="M45.2273 51.1318V47.6874C45.2273 45.8603 44.5185 44.1081 43.2569 42.8162C41.9953 41.5243 40.2842 40.7985 38.5 40.7985H26.7273C24.9431 40.7985 23.232 41.5243 21.9704 42.8162C20.7088 44.1081 20 45.8603 20 47.6874V51.1318M46.9091 33.9096L50.2727 37.3541L57 30.4652M39.3409 27.0207C39.3409 30.8254 36.329 33.9096 32.6136 33.9096C28.8983 33.9096 25.8864 30.8254 25.8864 27.0207C25.8864 23.2161 28.8983 20.1318 32.6136 20.1318C36.329 20.1318 39.3409 23.2161 39.3409 27.0207Z" stroke="white" stroke-width="2" stroke-linecap="round" stroke-linejoin="round"/>
</svg>
