<svg width="25" height="25" viewBox="0 0 25 25" fill="none" xmlns="http://www.w3.org/2000/svg">
<path d="M18.4001 20.475V18.925C18.4001 18.1028 18.063 17.3143 17.4628 16.733C16.8627 16.1516 16.0488 15.825 15.2001 15.825H8.8001C7.9514 15.825 7.13747 16.1516 6.53736 16.733C5.93724 17.3143 5.6001 18.1028 5.6001 18.925V20.475" stroke="#6B6B6B" stroke-width="2" stroke-linecap="round" stroke-linejoin="round"/>
<path d="M11.9998 12.725C13.7671 12.725 15.1998 11.3371 15.1998 9.62502C15.1998 7.91294 13.7671 6.52502 11.9998 6.52502C10.2325 6.52502 8.7998 7.91294 8.7998 9.62502C8.7998 11.3371 10.2325 12.725 11.9998 12.725Z" stroke="#6B6B6B" stroke-width="2" stroke-linecap="round" stroke-linejoin="round"/>
<path d="M12.5 23.25C18.4371 23.25 23.25 18.4371 23.25 12.5C23.25 6.56294 18.4371 1.75 12.5 1.75C6.56294 1.75 1.75 6.56294 1.75 12.5C1.75 18.4371 6.56294 23.25 12.5 23.25Z" stroke="#6B6B6B" stroke-width="2" stroke-linecap="round" stroke-linejoin="round"/>
</svg>
